<?xml version="1.0" encoding="UTF-8" standalone="no"?>
<svg
   xmlns:dc="http://purl.org/dc/elements/1.1/"
   xmlns:cc="http://creativecommons.org/ns#"
   xmlns:rdf="http://www.w3.org/1999/02/22-rdf-syntax-ns#"
   xmlns:svg="http://www.w3.org/2000/svg"
   xmlns="http://www.w3.org/2000/svg"
   xmlns:sodipodi="http://sodipodi.sourceforge.net/DTD/sodipodi-0.dtd"
   xmlns:inkscape="http://www.inkscape.org/namespaces/inkscape"
   version="1.1"
   viewBox="0.0 0.0 960.0 720.0"
   fill="none"
   stroke="none"
   stroke-linecap="square"
   stroke-miterlimit="10"
   id="svg3409"
   inkscape:version="0.91 r13725"
   sodipodi:docname="deninet-logo.svg">
  <metadata
     id="metadata3442">
    <rdf:RDF>
      <cc:Work
         rdf:about="">
        <dc:format>image/svg+xml</dc:format>
        <dc:type
           rdf:resource="http://purl.org/dc/dcmitype/StillImage" />
        <dc:title></dc:title>
      </cc:Work>
    </rdf:RDF>
  </metadata>
  <defs
     id="defs3440" />
  <sodipodi:namedview
     pagecolor="#ffffff"
     bordercolor="#666666"
     borderopacity="1"
     objecttolerance="10"
     gridtolerance="10"
     guidetolerance="10"
     inkscape:pageopacity="0"
     inkscape:pageshadow="2"
     inkscape:window-width="1366"
     inkscape:window-height="704"
     id="namedview3438"
     showgrid="false"
     inkscape:snap-bbox="true"
     inkscape:bbox-paths="true"
     inkscape:bbox-nodes="true"
     inkscape:snap-bbox-edge-midpoints="true"
     inkscape:snap-bbox-midpoints="true"
     inkscape:zoom="0.70710678"
     inkscape:cx="435.87192"
     inkscape:cy="343.99589"
     inkscape:window-x="0"
     inkscape:window-y="27"
     inkscape:window-maximized="1"
     inkscape:current-layer="svg3409" />
  <clipPath
     id="p.0">
    <path
       d="m0 0l960.0 0l0 720.0l-960.0 0l0 -720.0z"
       clip-rule="nonzero"
       id="path3412" />
  </clipPath>
  <path
     inkscape:connector-curvature="0"
     style="fill:#bf1f00;fill-opacity:1;fill-rule:nonzero"
     d="m 536.67,344.33 -247.304,-115.863 -25.716,-0.2125 0,12.1645 247.404,115.97 0,100.425 L 263.84868,572.7337 263.65,572.358 900.166,383.09438 784.074,328.786 536.67,444.33 Z"
     id="path3424-2-4-7"
     sodipodi:nodetypes="cccccccccccc" />
  <path
     style="fill:#cccccc;fill-rule:nonzero"
     inkscape:connector-curvature="0"
     id="path3422-1"
     d="M 289.366,228.361 536.67,112.391 784.074,228.361 536.67,344.33 Z"
     sodipodi:nodetypes="ccccc" />
  <path
     style="fill:#afafaf;fill-opacity:1;fill-rule:nonzero"
     inkscape:connector-curvature="0"
     id="path3424-9-1"
     d="m 536.67,444.33 247.404,-115.544 0,-100.425 L 536.67,344.33 Z"
     sodipodi:nodetypes="ccccc" />
  <path
     style="fill:#d8d8d8;fill-opacity:1;fill-rule:nonzero"
     inkscape:connector-curvature="0"
     id="path3422-3"
     d="m 16.364958,356.3315 0.08109,100.5265 247.403965,115.96956 -0.0811,-100.52652 z"
     sodipodi:nodetypes="ccccc" />
  <path
     style="fill:#000000;fill-opacity:0;fill-rule:nonzero"
     inkscape:connector-curvature="0"
     id="path3416"
     d="m 0,0 960,0 0,720 -960,0 z" />
  <path
     style="fill:#cccccc;fill-rule:nonzero"
     inkscape:connector-curvature="0"
     id="path3422"
     d="M 16.246,356.389 263.65,240.419 511.054,356.389 263.65,472.358 Z"
     sodipodi:nodetypes="ccccc" />
  <path
     style="fill:#d8d8d8;fill-rule:nonzero"
     inkscape:connector-curvature="0"
     id="path3424"
     d="M 263.65,572.358 16.246,456.389 l 0,-100 247.404,115.969 z"
     sodipodi:nodetypes="ccccc" />
  <path
     style="display:none;fill:#000000;fill-opacity:0.13080002;fill-rule:nonzero"
     inkscape:connector-curvature="0"
     id="path3426"
     d="M 289.266,227.4515 536.67,343.421 570.3844,327.61 Z"
     sodipodi:nodetypes="cccc" />
  <path
     style="fill:#000000;fill-opacity:0.13080002;fill-rule:nonzero"
     d="m 784.12478,328.73522 -247.404,115.544 2.2e-4,-87.941 -25.616,0 -2.2e-4,100.87948 -247.404,115.08952 562.69481,-223.72096 z"
     id="path3434"
     inkscape:connector-curvature="0"
     sodipodi:nodetypes="cccccccc" />
  <path
     style="fill:#afafaf;fill-opacity:1;fill-rule:nonzero"
     inkscape:connector-curvature="0"
     id="path3424-9"
     d="m 263.65,572.734 247.404,-115.92 0,-100.425 -247.404,115.969 z"
     sodipodi:nodetypes="ccccc" />
  <path
     style="fill:#000000;fill-opacity:0.13080002;fill-rule:nonzero"
     d="M 784.07422 228.36133 L 536.7207 344.33008 L 536.7207 363.51562 L 511.08789 373.73047 L 511.08789 356.34766 L 263.65039 472.35742 L 784.07422 264.92773 L 784.07422 228.36133 z "
     id="path3430" />
  <path
     style="opacity:1;fill:#000000;fill-opacity:0.12941176;fill-rule:evenodd;stroke:none;stroke-width:1px;stroke-linecap:butt;stroke-linejoin:miter;stroke-opacity:1"
     d="M 289.366,228.48653 536.67,344.34953 562.286,332.32 Z"
     id="path4510"
     inkscape:connector-curvature="0"
     sodipodi:nodetypes="cccc" />
</svg>
